<svg xmlns="http://www.w3.org/2000/svg" viewBox="0 0 90 90"><defs><style>.cls-1{fill:#87613e;}.cls-2{fill:#88af25;}</style></defs><title>green-maple-leaf</title><g id="green-maple-leaf"><path class="cls-1" d="M43.73,66h2.51a0,0,0,0,1,0,0V84.17a.83.83,0,0,1-.83.83h-.83a.85.85,0,0,1-.85-.85V66A0,0,0,0,1,43.73,66Z"/><path class="cls-2" d="M46.26,66.26s1.43-2.31,2.06-2l16,7.4a1.66,1.66,0,0,0,2.25-2.07c-1-2.8-2.23-6.29-2.55-7.13-.56-1.44-.84-3.26.71-4.36,1.25-.89,11-8.51,15.48-12a1.66,1.66,0,0,0-.35-2.83l-1.2-.55a1.94,1.94,0,0,1-.8-2.42c.1-.34,1.6-5.44,2.56-8.7a1.65,1.65,0,0,0-1.94-2.09c-2.63.58-6.34,1.39-7.35,1.57-1.41.25-1.64-.37-1.85-.79s-.73-1.59-1.23-2.74a1.65,1.65,0,0,0-2.76-.42c-2.15,2.48-5.71,6.57-6.8,7.77-1.29,1.42-2.9.34-2.56-1.31.23-1.13,2.36-11.32,3.53-16.86A1.65,1.65,0,0,0,57,15c-1.11.64-2.21,1.28-2.74,1.65-1.3.89-2,.41-2.46-.43L46.46,5.89a1.64,1.64,0,0,0-2.92,0c-1.91,3.67-5.05,9.71-5.35,10.29-.44.84-1.16,1.32-2.46.43-.53-.36-1.63-1-2.73-1.64a1.65,1.65,0,0,0-2.44,1.77c1.16,5.54,3.29,15.72,3.52,16.85.33,1.65-1.28,2.73-2.56,1.31-1.09-1.19-4.64-5.28-6.79-7.76a1.65,1.65,0,0,0-2.77.42c-.51,1.15-1,2.35-1.23,2.73s-.44,1-1.85.79c-1-.18-4.71-1-7.34-1.57A1.66,1.66,0,0,0,9.6,31.61l2.56,8.69a1.94,1.94,0,0,1-.8,2.42l-1.19.55a1.67,1.67,0,0,0-.35,2.83c4.45,3.47,14.23,11.09,15.48,12,1.55,1.1,1.26,2.92.71,4.36-.32.84-1.56,4.33-2.55,7.13a1.66,1.66,0,0,0,2.25,2.07l16-7.4c.63-.29,2.06,2,2.06,2"/></g></svg>